<?xml version="1.0" encoding="UTF-8" standalone="no"?>
<svg
   xmlns:dc="http://purl.org/dc/elements/1.1/"
   xmlns:cc="http://creativecommons.org/ns#"
   xmlns:rdf="http://www.w3.org/1999/02/22-rdf-syntax-ns#"
   xmlns:svg="http://www.w3.org/2000/svg"
   xmlns="http://www.w3.org/2000/svg"
   xmlns:sodipodi="http://sodipodi.sourceforge.net/DTD/sodipodi-0.dtd"
   xmlns:inkscape="http://www.inkscape.org/namespaces/inkscape"
   inkscape:version="1.0 (4035a4fb49, 2020-05-01)"
   sodipodi:docname="pretzel.svg"
   id="svg8"
   version="1.1"
   viewBox="0 0 69.209488 69.209488"
   height="69.209488mm"
   width="69.209488mm">
  <defs
     id="defs2" />
  <sodipodi:namedview
     inkscape:window-maximized="1"
     inkscape:window-y="-8"
     inkscape:window-x="1592"
     inkscape:window-height="1027"
     inkscape:window-width="1920"
     fit-margin-bottom="0"
     fit-margin-right="0"
     fit-margin-left="0"
     fit-margin-top="0"
     showgrid="false"
     inkscape:document-rotation="0"
     inkscape:current-layer="layer1"
     inkscape:document-units="mm"
     inkscape:cy="-27.200848"
     inkscape:cx="15.926276"
     inkscape:zoom="0.7"
     inkscape:pageshadow="2"
     inkscape:pageopacity="0.0"
     borderopacity="1.0"
     bordercolor="#666666"
     pagecolor="#ffffff"
     id="base" />
  <metadata
     id="metadata5">
    <rdf:RDF>
      <cc:Work
         rdf:about="">
        <dc:format>image/svg+xml</dc:format>
        <dc:type
           rdf:resource="http://purl.org/dc/dcmitype/StillImage" />
        <dc:title></dc:title>
      </cc:Work>
    </rdf:RDF>
  </metadata>
  <g
     transform="translate(-84.688744,-57.486628)"
     id="layer1"
     inkscape:groupmode="layer"
     inkscape:label="Layer 1">
    <path
       id="path914"
       d="m 109.8117,115.1952 c -1.94894,-0.35389 -4.59679,-0.97796 -5.88413,-1.38682 -2.19786,-0.69803 -2.41057,-0.70847 -3.48763,-0.17116 -2.761898,1.37783 -5.953529,-0.43109 -6.307902,-3.5751 -0.154901,-1.37427 -0.476864,-1.96975 -1.825564,-3.37641 -2.145,-2.2372 -4.119496,-5.60181 -5.09599,-8.683762 -1.179368,-3.722226 -1.087454,-9.905002 0.205566,-13.827137 3.041096,-9.224595 10.170975,-15.108374 18.30812,-15.108374 4.62384,0 8.57386,1.511601 12.13016,4.641979 l 1.6034,1.411376 0.84658,-0.902101 c 1.45323,-1.548518 4.99969,-3.663456 7.40209,-4.414238 3.19569,-0.998703 7.40269,-0.987554 10.45354,0.02771 6.056,2.015312 10.81811,7.227441 13.21992,14.469248 1.25551,3.785538 1.33203,10.027626 0.16796,13.701549 -0.9765,3.08194 -2.95099,6.44655 -5.09598,8.68375 -1.34871,1.40666 -1.67068,2.00214 -1.82558,3.37641 -0.35415,3.14208 -3.54603,4.95291 -6.30461,3.57675 -1.0824,-0.53997 -1.29785,-0.52382 -4.01914,0.30122 -4.61919,1.40044 -9.02982,1.95652 -15.27771,1.92613 -3.83085,-0.0186 -6.81882,-0.23624 -9.2131,-0.67102 z m 16.28563,-8.55473 c 1.46966,-0.2186 2.66163,-0.49766 2.64881,-0.62014 -0.0202,-0.19268 -6.3344,-5.46787 -8.63078,-7.210527 -0.79298,-0.601766 -0.86372,-0.559012 -5.53226,3.343847 -2.60094,2.17439 -4.57909,4.00109 -4.39586,4.05936 2.52553,0.80298 11.72364,1.05011 15.91009,0.42746 z M 106.5008,97.239406 c 4.48983,-3.750407 5.76962,-5.004652 5.6947,-5.581019 -0.55599,-4.276852 -0.55057,-4.333785 0.66285,-6.966336 l 1.18058,-2.561318 -1.40491,-1.233219 c -4.57061,-4.012 -9.63164,-3.846718 -13.58641,0.443697 -3.652968,3.962994 -4.805135,10.016702 -2.882937,15.147432 0.648987,1.73227 3.582307,5.588327 4.251067,5.588327 0.16154,0 2.89983,-2.176892 6.08506,-4.837564 z m 33.76431,2.977224 c 2.87641,-3.285272 3.92586,-7.65729 2.89376,-12.055461 -0.71055,-3.027911 -1.64609,-4.864928 -3.5041,-6.880631 -3.8969,-4.227638 -8.98644,-4.371715 -13.53048,-0.383024 l -1.40493,1.233219 1.18059,2.561318 c 1.21488,2.635719 1.21719,2.659943 0.66287,6.975261 -0.0756,0.588371 1.17088,1.804916 5.7183,5.58102 3.19824,2.655761 5.93653,4.828638 6.08508,4.828638 0.14855,0 1.00307,-0.83714 1.89891,-1.86034 z"
       style="fill:#000000;stroke-width:1" />
  </g>
</svg>
